<?xml version="1.0" standalone="no"?>
<!DOCTYPE svg PUBLIC "-//W3C//DTD SVG 20010904//EN"
 "http://www.w3.org/TR/2001/REC-SVG-20010904/DTD/svg10.dtd">
<svg version="1.0" xmlns="http://www.w3.org/2000/svg"
 width="500.000000pt" height="500.000000pt" viewBox="0 0 500.000000 500.000000"
 preserveAspectRatio="xMidYMid meet">
<metadata>
Created by potrace 1.11, written by Peter Selinger 2001-2013
</metadata>
<g transform="translate(0.000000,500.000000) scale(0.100000,-0.100000)"
fill="#000000" stroke="none">
<path d="M0 2500 l0 -2500 2500 0 2500 0 0 2500 0 2500 -2500 0 -2500 0 0
-2500z m3892 1126 c101 -26 231 -86 286 -134 l32 -27 -80 -135 c-44 -74 -81
-139 -83 -144 -2 -5 -25 8 -52 29 -108 83 -233 119 -385 112 -122 -5 -177 -23
-234 -76 -56 -52 -79 -109 -79 -200 0 -173 83 -259 462 -471 91 -50 191 -109
223 -131 137 -93 252 -233 292 -352 54 -163 32 -383 -53 -532 -195 -340 -746
-429 -1202 -193 -42 21 -86 49 -98 62 l-22 24 82 148 c45 82 84 151 86 153 2
3 13 -5 26 -17 35 -32 164 -102 252 -136 74 -28 90 -30 205 -30 107 0 133 3
183 23 133 53 197 139 197 265 0 92 -19 147 -74 217 -56 72 -137 125 -375 248
-105 54 -219 119 -254 144 -187 134 -287 327 -287 557 0 183 50 312 164 426
75 74 141 116 241 153 149 56 371 63 547 17z m-2302 -12 c195 -12 424 -75 568
-156 143 -80 296 -256 378 -433 78 -169 103 -283 111 -495 8 -236 -21 -403
-105 -614 -109 -270 -356 -490 -654 -580 -177 -54 -214 -58 -660 -63 l-418 -5
0 1182 0 1182 343 -6 c188 -3 385 -9 437 -12z"/>
<path d="M1170 2450 l0 -860 179 0 c213 0 305 11 426 51 108 36 170 73 248
148 149 143 232 354 244 618 21 458 -171 768 -533 863 -86 22 -286 40 -456 40
l-108 0 0 -860z"/>
</g>
</svg>
