<svg id="Layer_3" enable-background="new 0 0 64 64" height="512" viewBox="0 0 64 64" width="512" xmlns="http://www.w3.org/2000/svg"><g><g><path d="m6 35h12v23h-12z" fill="#956346"/></g><g><path d="m6 49.967c6.29-.33 11.383-6.776 11.943-14.967h-11.943z" fill="#aa826b"/></g><g><path d="m18 18h-12c-2.209 0-4 1.791-4 4v17h4s0-2.5 0-4h12v4h4v-17c0-2.209-1.791-4-4-4z" fill="#c8ec6c"/></g><g><path d="m18 18h-12c-2.209 0-4 1.791-4 4v8.202c1.425.515 2.934.798 4.5.798 6.555 0 12.146-4.864 14.413-11.726-.73-.78-1.761-1.274-2.913-1.274z" fill="#def4a7"/></g><g><path d="m12 58h6c1.105 0 2 .895 2 2v2h-8z" fill="#4d4d4d"/></g><g><path d="m12 58h-6c-1.105 0-2 .895-2 2v2h8z" fill="#4d4d4d"/></g><g><path d="m12 50h8v4h-8z" fill="#8a8275"/></g><g><path d="m2 35h4v4h-4z" fill="#e2b88f"/></g><g><path d="m18 35h4v4h-4z" fill="#e2b88f"/></g><g><path d="m9 18v1c0 1.657 1.343 3 3 3 1.657 0 3-1.343 3-3v-1z" fill="#e2b88f"/></g><g><path d="m15 6c0 2.209-3.791 4-6 4h-2v3c0 2.761 2.239 5 5 5s5-2.239 5-5v-3.555c-1.191-.693-2-1.968-2-3.445z" fill="#e2b88f"/></g><g><path d="m15.655 8.164c-.41-.622-.655-1.361-.655-2.164 0 2.209-3.791 4-6 4h-2v3c0 .71.153 1.384.42 1.995.027.001.053.005.08.005 3.866 0 7.124-2.887 8.155-6.836z" fill="#eed4bc"/></g><g><path d="m15 6c0 2.209-3.791 4-6 4h-4v-4c0-2.209 1.791-4 4-4h6c2.209 0 4 1.791 4 4v4c-2.209 0-4-1.791-4-4z" fill="#956346"/></g><g><path d="m19 10h-2v3c0 .343-.035.677-.101 1h2.101c1.105 0 2-.895 2-2s-.895-2-2-2z" fill="#e2b88f"/></g><g><path d="m5 10h2v3c0 .343.035.677.101 1h-2.101c-1.105 0-2-.895-2-2s.895-2 2-2z" fill="#e2b88f"/></g><g><circle cx="48" cy="53" fill="#4d4d4d" r="9"/></g><g><path d="m53.804 46.127c-1.567-1.325-3.591-2.127-5.804-2.127-4.971 0-9 4.029-9 9 0 1.428.341 2.773.933 3.972.19.008.376.028.567.028 6.702 0 12.248-4.708 13.304-10.873z" fill="#b8b8b8"/></g><g><path d="m26 12h36v16h-36z" fill="#8a8275"/></g><g><path d="m26 22.597c2.912 1.505 6.486 2.403 10.365 2.403 9.74 0 17.635-5.596 17.635-12.5 0-.169-.026-.333-.036-.5h-27.964z" fill="#b9b4ac"/></g><g><path d="m5 23h2v35h-2z"/></g><g><path d="m12 63h-8c-.552 0-1-.448-1-1v-2c0-1.654 1.346-3 3-3h5v-17h2v22c0 .552-.448 1-1 1zm-7-2h6v-2h-5c-.551 0-1 .449-1 1z"/></g><g><path d="m17 23h2v27h-2z"/></g><g><path d="m20 63h-8v-2h7v-1c0-.551-.449-1-1-1h-6v-2h6c1.654 0 3 1.346 3 3v2c0 .552-.448 1-1 1z"/></g><g><path d="m2 34h20v2h-20z"/></g><g><path d="m19 11c-1.794 0-3.371-.95-4.253-2.374-1.537 1.498-4.135 2.374-5.747 2.374h-4c-.552 0-1-.448-1-1v-4c0-2.757 2.243-5 5-5h6c2.757 0 5 2.243 5 5v4c0 .552-.448 1-1 1zm-13-2h3c1.974 0 5-1.609 5-3 0-.552.448-1 1-1s1 .448 1 1c0 1.304.836 2.416 2 2.829v-2.829c0-1.654-1.346-3-3-3h-6c-1.654 0-3 1.346-3 3z"/></g><g><path d="m12 19c-3.309 0-6-2.691-6-6v-3h2v3c0 2.206 1.794 4 4 4s4-1.794 4-4v-4h2v4c0 3.309-2.691 6-6 6z"/></g><g><path d="m7 15h-2c-1.654 0-3-1.346-3-3s1.346-3 3-3h1v2h-1c-.551 0-1 .449-1 1s.449 1 1 1h2z"/></g><g><path d="m19 15h-2v-2h2c.551 0 1-.449 1-1s-.449-1-1-1h-1v-2h1c1.654 0 3 1.346 3 3s-1.346 3-3 3z"/></g><g><path d="m12 23c-2.206 0-4-1.794-4-4v-1h2v1c0 1.103.897 2 2 2s2-.897 2-2v-1h2v1c0 2.206-1.794 4-4 4z"/></g><g><path d="m22 40h-4v-2h3v-16c0-1.654-1.346-3-3-3h-12c-1.654 0-3 1.346-3 3v16h3v2h-4c-.552 0-1-.448-1-1v-17c0-2.757 2.243-5 5-5h12c2.757 0 5 2.243 5 5v17c0 .552-.448 1-1 1z"/></g><g><path d="m20 55h-8v-2h7v-2h-7v-2h8c.552 0 1 .448 1 1v4c0 .552-.448 1-1 1z"/></g><g><path d="m17 54h2v4h-2z"/></g><g><path d="m48 63c-5.514 0-10-4.486-10-10s4.486-10 10-10 10 4.486 10 10-4.486 10-10 10zm0-18c-4.411 0-8 3.589-8 8s3.589 8 8 8 8-3.589 8-8-3.589-8-8-8z"/></g><g><path d="m48 63c-5.514 0-10-4.486-10-10s4.486-10 10-10 10 4.486 10 10-4.486 10-10 10zm0-18c-4.411 0-8 3.589-8 8s3.589 8 8 8 8-3.589 8-8-3.589-8-8-8z"/></g><g><path d="m31 60c-1.654 0-3-1.346-3-3v-11c0-.551-.449-1-1-1s-1 .449-1 1v4c0 1.654-1.346 3-3 3h-3v-2h3c.551 0 1-.449 1-1v-4c0-1.654 1.346-3 3-3s3 1.346 3 3v11c0 .551.449 1 1 1s1-.449 1-1v-2c0-1.654 1.346-3 3-3h4v2h-4c-.551 0-1 .449-1 1v2c0 1.654-1.346 3-3 3z"/></g><g><path d="m48 58h-3v-2h3c.551 0 1-.449 1-1s-.449-1-1-1c-1.654 0-3-1.346-3-3s1.346-3 3-3h3v2h-3c-.551 0-1 .449-1 1s.449 1 1 1c1.654 0 3 1.346 3 3s-1.346 3-3 3z"/></g><g><path d="m47 46h2v3h-2z"/></g><g><path d="m47 57h2v3h-2z"/></g><g><path d="m62 29h-36c-.552 0-1-.448-1-1v-16c0-.552.448-1 1-1h36c.552 0 1 .448 1 1v16c0 .552-.448 1-1 1zm-35-2h34v-14h-34z"/></g><g><path d="m32 25h-2c-.552 0-1-.448-1-1v-8c0-.552.448-1 1-1h2c2.206 0 4 1.794 4 4v2c0 2.206-1.794 4-4 4zm-1-2h1c1.103 0 2-.897 2-2v-2c0-1.103-.897-2-2-2h-1z"/></g><g><path d="m43 25h-4c-.552 0-1-.448-1-1v-8c0-.552.448-1 1-1h4v2h-3v6h3z"/></g><g><path d="m39 19h4v2h-4z"/></g><g><path d="m48 25h-2c-.552 0-1-.448-1-1v-8c0-.552.448-1 1-1h2c1.654 0 3 1.346 3 3 0 .768-.29 1.469-.766 2 .476.531.766 1.232.766 2 0 1.654-1.346 3-3 3zm-1-2h1c.551 0 1-.449 1-1s-.449-1-1-1h-1zm0-4h1c.551 0 1-.449 1-1s-.449-1-1-1h-1z"/></g><g><path d="m53 15h6v2h-6z"/></g><g><path d="m55 16h2v9h-2z"/></g><g><path d="m34 2h2v7h-2z"/></g><g><path d="m37.293 5.707-2.293-2.293-2.293 2.293-1.414-1.414 3-3c.391-.391 1.023-.391 1.414 0l3 3z"/></g><g><path d="m52 2h2v7h-2z"/></g><g><path d="m55.293 5.707-2.293-2.293-2.293 2.293-1.414-1.414 3-3c.391-.391 1.023-.391 1.414 0l3 3z"/></g><g><path d="m49 44h-2v-.171c0-1.557-.606-3.021-1.707-4.122l1.414-1.414c1.479 1.478 2.293 3.444 2.293 5.536z"/></g><g><path d="m42.628 42.929-5-2c-.365-.146-.611-.494-.627-.887-.017-.394.2-.76.552-.936l3.317-1.658-.85-4.251c-.082-.407.097-.821.447-1.042.351-.221.801-.204 1.133.046l3.306 2.479 3.387-3.387c.261-.261.644-.357.997-.25s.619.399.691.761l.794 3.972 2.982-.746c.393-.099.805.05 1.046.375s.262.763.054 1.11l-3 5-1.715-1.029 1.758-2.93-1.658.415c-.266.066-.546.021-.777-.125s-.392-.381-.446-.649l-.634-3.168-2.679 2.679c-.353.352-.909.392-1.307.093l-1.906-1.429.487 2.433c.088.442-.13.889-.533 1.091l-2.008 1.004 2.933 1.173z"/></g></g></svg>