<?xml version="1.0" encoding="utf-8"?>
<!-- Generator: Adobe Illustrator 22.1.0, SVG Export Plug-In . SVG Version: 6.00 Build 0)  -->
<svg version="1.1" id="Layer_1" xmlns="http://www.w3.org/2000/svg" xmlns:xlink="http://www.w3.org/1999/xlink" x="0px" y="0px"
	 viewBox="0 0 785.8 135.7" style="enable-background:new 0 0 785.8 135.7;" xml:space="preserve">
<style type="text/css">
	.st0{enable-background:new    ;}
	.st1{fill:#993333;}
</style>
<title>ds-logo-smaller</title>
<g>
	<g class="st0">
		<path d="M159,96.9v1.8h-2.4c-0.8,0-1.3,0.2-1.6,0.5s-0.5,0.9-0.5,1.7v1.2h4.5v1.7h-4.5v11.4h-2.2v-11.4h-3.5V102h3.5v-0.9
			c0-1.4,0.3-2.5,1-3.2s1.7-1,3.1-1H159z"/>
		<path d="M174.6,104.7c-0.5-0.4-0.9-0.6-1.4-0.8s-1-0.2-1.6-0.2c-1.3,0-2.4,0.4-3.1,1.3s-1.1,2.1-1.1,3.7v6.5h-2.2V102h2.2v2.6
			c0.4-0.9,0.9-1.6,1.7-2.1s1.6-0.7,2.7-0.7c0.5,0,1,0.1,1.5,0.2s0.9,0.3,1.3,0.6V104.7z"/>
		<path d="M182.7,101.7c1.8,0,3.2,0.6,4.2,1.8s1.4,2.9,1.4,5.1c0,2.2-0.5,4-1.4,5.1s-2.4,1.8-4.2,1.8c-1.8,0-3.2-0.6-4.2-1.8
			s-1.4-2.9-1.4-5.1c0-2.2,0.5-3.9,1.4-5.1S180.9,101.7,182.7,101.7z M182.7,103.5c-1.1,0-1.9,0.4-2.5,1.3s-0.8,2.1-0.8,3.8
			c0,1.7,0.3,2.9,0.8,3.8s1.4,1.3,2.5,1.3c1.1,0,1.9-0.4,2.5-1.3s0.8-2.1,0.8-3.8c0-1.7-0.3-2.9-0.8-3.8S183.8,103.5,182.7,103.5z"
			/>
		<path d="M202.2,107v8.1h-2.2V107c0-1.2-0.2-2-0.6-2.6s-1.1-0.8-1.9-0.8c-1,0-1.8,0.4-2.3,1.1s-0.8,1.7-0.8,3.1v7.4h-2.2V102h2.2v2
			c0.4-0.8,0.9-1.3,1.6-1.7s1.4-0.6,2.3-0.6c1.3,0,2.3,0.4,3,1.3S202.2,105.2,202.2,107z"/>
		<path d="M211.6,98.3v3.7h4.9v1.7h-4.9v7.1c0,1,0.2,1.6,0.6,2s1,0.6,1.9,0.6h2.4v1.7h-2.6c-1.6,0-2.8-0.3-3.4-1s-1-1.8-1-3.4v-7.1
			h-3.5V102h3.5v-3.7H211.6z"/>
		<path d="M220,106.7h12.4v2H220V106.7z"/>
		<path d="M246.4,107.5v1.1H237v0.1c-0.1,1.8,0.3,3.1,1,3.9s1.8,1.2,3.2,1.2c0.7,0,1.4-0.1,2.2-0.3s1.6-0.6,2.4-1v2.1
			c-0.8,0.3-1.6,0.6-2.4,0.8s-1.5,0.3-2.2,0.3c-2,0-3.6-0.6-4.8-1.8s-1.7-2.9-1.7-5.1c0-2.1,0.6-3.8,1.7-5s2.6-1.9,4.5-1.9
			c1.7,0,3,0.6,4,1.7S246.3,105.9,246.4,107.5z M244.2,106.9c-0.1-0.9-0.4-1.7-1-2.3s-1.4-1-2.4-1c-1,0-1.9,0.3-2.6,1
			s-1,1.5-1.1,2.3L244.2,106.9z"/>
		<path d="M260,107v8.1h-2.2V107c0-1.2-0.2-2-0.6-2.6s-1.1-0.8-1.9-0.8c-1,0-1.8,0.4-2.3,1.1s-0.8,1.7-0.8,3.1v7.4H250V102h2.2v2
			c0.4-0.8,0.9-1.3,1.6-1.7s1.4-0.6,2.3-0.6c1.3,0,2.3,0.4,3,1.3S260,105.2,260,107z"/>
		<path d="M272.2,103.7v-6.8h2.2v18.2h-2.2v-1.7c-0.4,0.6-0.8,1.1-1.4,1.5s-1.3,0.5-2.1,0.5c-1.6,0-2.8-0.6-3.7-1.8
			s-1.4-2.9-1.4-5.1c0-2.1,0.5-3.8,1.4-5s2.2-1.8,3.7-1.8c0.8,0,1.5,0.2,2.1,0.5S271.9,103,272.2,103.7z M265.9,108.6
			c0,1.7,0.3,2.9,0.8,3.8s1.3,1.3,2.4,1.3s1.8-0.4,2.4-1.3s0.8-2.1,0.8-3.8c0-1.7-0.3-2.9-0.8-3.8s-1.3-1.3-2.4-1.3
			s-1.8,0.4-2.4,1.3S265.9,106.9,265.9,108.6z"/>
		<path d="M291.1,102h2.1l2.3,10.6l1.9-6.8h1.8l1.9,6.8l2.3-10.6h2.1l-3.1,13.1h-2.1l-2.1-7.2l-2.1,7.2h-2.1L291.1,102z"/>
		<path d="M318.6,107.5v1.1h-9.3v0.1c-0.1,1.8,0.3,3.1,1,3.9s1.8,1.2,3.2,1.2c0.7,0,1.4-0.1,2.2-0.3s1.6-0.6,2.4-1v2.1
			c-0.8,0.3-1.6,0.6-2.4,0.8s-1.5,0.3-2.2,0.3c-2,0-3.6-0.6-4.8-1.8s-1.7-2.9-1.7-5.1c0-2.1,0.6-3.8,1.7-5s2.6-1.9,4.5-1.9
			c1.7,0,3,0.6,4,1.7S318.6,105.9,318.6,107.5z M316.5,106.9c-0.1-0.9-0.4-1.7-1-2.3s-1.4-1-2.4-1c-1,0-1.9,0.3-2.6,1
			s-1,1.5-1.1,2.3L316.5,106.9z"/>
		<path d="M324.4,103.7c0.3-0.6,0.8-1.1,1.4-1.5s1.3-0.5,2.1-0.5c1.6,0,2.8,0.6,3.7,1.8s1.4,2.9,1.4,5c0,2.2-0.5,3.9-1.4,5.1
			s-2.2,1.8-3.7,1.8c-0.8,0-1.5-0.2-2.1-0.5s-1.1-0.8-1.4-1.5v1.7h-2.2V96.9h2.2V103.7z M330.7,108.6c0-1.7-0.3-2.9-0.8-3.8
			s-1.3-1.3-2.4-1.3c-1,0-1.8,0.4-2.4,1.3s-0.8,2.1-0.8,3.8c0,1.7,0.3,2.9,0.8,3.8s1.3,1.3,2.4,1.3c1,0,1.8-0.4,2.4-1.3
			S330.7,110.3,330.7,108.6z"/>
		<path d="M358.9,103.7v-6.8h2.2v18.2h-2.2v-1.7c-0.4,0.6-0.8,1.1-1.4,1.5s-1.3,0.5-2.1,0.5c-1.6,0-2.8-0.6-3.7-1.8
			s-1.4-2.9-1.4-5.1c0-2.1,0.5-3.8,1.4-5s2.2-1.8,3.7-1.8c0.8,0,1.5,0.2,2.1,0.5S358.6,103,358.9,103.7z M352.6,108.6
			c0,1.7,0.3,2.9,0.8,3.8s1.3,1.3,2.4,1.3s1.8-0.4,2.4-1.3s0.8-2.1,0.8-3.8c0-1.7-0.3-2.9-0.8-3.8s-1.3-1.3-2.4-1.3
			s-1.8,0.4-2.4,1.3S352.6,106.9,352.6,108.6z"/>
		<path d="M376.4,107.5v1.1h-9.3v0.1c-0.1,1.8,0.3,3.1,1,3.9s1.8,1.2,3.2,1.2c0.7,0,1.4-0.1,2.2-0.3s1.6-0.6,2.4-1v2.1
			c-0.8,0.3-1.6,0.6-2.4,0.8s-1.5,0.3-2.2,0.3c-2,0-3.6-0.6-4.8-1.8s-1.7-2.9-1.7-5.1c0-2.1,0.6-3.8,1.7-5s2.6-1.9,4.5-1.9
			c1.7,0,3,0.6,4,1.7S376.4,105.9,376.4,107.5z M374.3,106.9c-0.1-0.9-0.4-1.7-1-2.3s-1.4-1-2.4-1c-1,0-1.9,0.3-2.6,1
			s-1,1.5-1.1,2.3L374.3,106.9z"/>
		<path d="M378.9,102h2.2l3.8,11l3.8-11h2.2l-4.7,13.1h-2.8L378.9,102z"/>
		<path d="M405.3,107.5v1.1H396v0.1c-0.1,1.8,0.3,3.1,1,3.9s1.8,1.2,3.2,1.2c0.7,0,1.4-0.1,2.2-0.3s1.6-0.6,2.4-1v2.1
			c-0.8,0.3-1.6,0.6-2.4,0.8s-1.5,0.3-2.2,0.3c-2,0-3.6-0.6-4.8-1.8s-1.7-2.9-1.7-5.1c0-2.1,0.6-3.8,1.7-5s2.6-1.9,4.5-1.9
			c1.7,0,3,0.6,4,1.7S405.3,105.9,405.3,107.5z M403.2,106.9c-0.1-0.9-0.4-1.7-1-2.3s-1.4-1-2.4-1c-1,0-1.9,0.3-2.6,1
			s-1,1.5-1.1,2.3L403.2,106.9z"/>
		<path d="M415.1,110.4c0,1,0.2,1.7,0.5,2.2s0.9,0.7,1.6,0.7h2.5v1.8H417c-1.3,0-2.3-0.4-3-1.2s-1.1-2-1.1-3.5V98.5h-3.5v-1.7h5.6
			V110.4z"/>
		<path d="M428.3,101.7c1.8,0,3.2,0.6,4.2,1.8s1.4,2.9,1.4,5.1c0,2.2-0.5,4-1.4,5.1s-2.4,1.8-4.2,1.8c-1.8,0-3.2-0.6-4.2-1.8
			s-1.4-2.9-1.4-5.1c0-2.2,0.5-3.9,1.4-5.1S426.5,101.7,428.3,101.7z M428.3,103.5c-1.1,0-1.9,0.4-2.5,1.3s-0.8,2.1-0.8,3.8
			c0,1.7,0.3,2.9,0.8,3.8s1.4,1.3,2.5,1.3c1.1,0,1.9-0.4,2.5-1.3s0.8-2.1,0.8-3.8c0-1.7-0.3-2.9-0.8-3.8S429.4,103.5,428.3,103.5z"
			/>
		<path d="M439.9,113.5v6.6h-2.2V102h2.2v1.7c0.4-0.6,0.8-1.1,1.4-1.5s1.3-0.5,2.1-0.5c1.6,0,2.8,0.6,3.7,1.8s1.4,2.9,1.4,5.1
			c0,2.1-0.5,3.8-1.4,5s-2.1,1.8-3.7,1.8c-0.8,0-1.5-0.2-2.1-0.5S440.3,114.1,439.9,113.5z M446.3,108.6c0-1.7-0.3-2.9-0.8-3.8
			s-1.3-1.3-2.3-1.3c-1,0-1.8,0.4-2.4,1.3s-0.8,2.1-0.8,3.8c0,1.7,0.3,2.9,0.8,3.8s1.3,1.3,2.4,1.3c1,0,1.8-0.4,2.3-1.3
			S446.3,110.3,446.3,108.6z"/>
		<path d="M463.1,107.5v1.1h-9.3v0.1c-0.1,1.8,0.3,3.1,1,3.9s1.8,1.2,3.2,1.2c0.7,0,1.4-0.1,2.2-0.3s1.6-0.6,2.4-1v2.1
			c-0.8,0.3-1.6,0.6-2.4,0.8s-1.5,0.3-2.2,0.3c-2,0-3.6-0.6-4.8-1.8s-1.7-2.9-1.7-5.1c0-2.1,0.6-3.8,1.7-5s2.6-1.9,4.5-1.9
			c1.7,0,3,0.6,4,1.7S463.1,105.9,463.1,107.5z M461,106.9c-0.1-0.9-0.4-1.7-1-2.3s-1.4-1-2.4-1c-1,0-1.9,0.3-2.6,1s-1,1.5-1.1,2.3
			L461,106.9z"/>
		<path d="M478,104.7c-0.5-0.4-0.9-0.6-1.4-0.8s-1-0.2-1.6-0.2c-1.3,0-2.4,0.4-3.1,1.3s-1.1,2.1-1.1,3.7v6.5h-2.2V102h2.2v2.6
			c0.4-0.9,0.9-1.6,1.7-2.1s1.6-0.7,2.7-0.7c0.5,0,1,0.1,1.5,0.2s0.9,0.3,1.3,0.6V104.7z"/>
		<path d="M503.8,97.6h2.2l-9.2,19.7h-2.2L503.8,97.6z"/>
		<path d="M532.3,103.7v-6.8h2.2v18.2h-2.2v-1.7c-0.4,0.6-0.8,1.1-1.4,1.5s-1.3,0.5-2.1,0.5c-1.6,0-2.8-0.6-3.7-1.8
			s-1.4-2.9-1.4-5.1c0-2.1,0.5-3.8,1.4-5s2.2-1.8,3.7-1.8c0.8,0,1.5,0.2,2.1,0.5S532,103,532.3,103.7z M526,108.6
			c0,1.7,0.3,2.9,0.8,3.8s1.3,1.3,2.4,1.3s1.8-0.4,2.4-1.3s0.8-2.1,0.8-3.8c0-1.7-0.3-2.9-0.8-3.8s-1.3-1.3-2.4-1.3
			s-1.8,0.4-2.4,1.3S526,106.9,526,108.6z"/>
		<path d="M549.8,107.5v1.1h-9.3v0.1c-0.1,1.8,0.3,3.1,1,3.9s1.8,1.2,3.2,1.2c0.7,0,1.4-0.1,2.2-0.3s1.6-0.6,2.4-1v2.1
			c-0.8,0.3-1.6,0.6-2.4,0.8s-1.5,0.3-2.2,0.3c-2,0-3.6-0.6-4.8-1.8s-1.7-2.9-1.7-5.1c0-2.1,0.6-3.8,1.7-5s2.6-1.9,4.5-1.9
			c1.7,0,3,0.6,4,1.7S549.8,105.9,549.8,107.5z M547.7,106.9c-0.1-0.9-0.4-1.7-1-2.3s-1.4-1-2.4-1c-1,0-1.9,0.3-2.6,1
			s-1,1.5-1.1,2.3L547.7,106.9z"/>
		<path d="M562.5,102.5v2.1c-0.6-0.4-1.2-0.6-1.9-0.8s-1.3-0.3-1.9-0.3c-1,0-1.7,0.2-2.2,0.5s-0.7,0.8-0.7,1.4c0,0.6,0.2,1,0.5,1.3
			s1.3,0.6,2.7,0.8l0.9,0.2c1.1,0.2,1.9,0.6,2.4,1.2s0.8,1.4,0.8,2.4c0,1.3-0.5,2.3-1.4,3s-2.2,1.1-3.8,1.1c-0.6,0-1.3-0.1-2-0.2
			s-1.5-0.3-2.3-0.6v-2.2c0.8,0.4,1.6,0.7,2.3,0.9s1.4,0.3,2.1,0.3c1,0,1.7-0.2,2.2-0.6s0.8-0.9,0.8-1.6c0-1-1-1.7-2.9-2.1l-0.1,0
			l-0.8-0.2c-1.2-0.2-2.1-0.7-2.7-1.2s-0.9-1.4-0.9-2.3c0-1.3,0.4-2.2,1.3-2.9s2.1-1,3.6-1c0.7,0,1.4,0.1,2,0.2
			S561.9,102.2,562.5,102.5z"/>
		<path d="M569.3,102.1h5.5v11.4h4.3v1.7h-10.7v-1.7h4.3v-9.7h-3.4V102.1z M572.7,97h2.2v2.7h-2.2V97z"/>
		<path d="M592.3,114.3c0,2-0.5,3.5-1.4,4.5s-2.3,1.5-4.1,1.5c-0.6,0-1.2-0.1-1.9-0.2s-1.3-0.3-1.9-0.5v-2.1
			c0.8,0.4,1.5,0.6,2.1,0.8s1.2,0.3,1.7,0.3c1.2,0,2-0.3,2.5-0.9s0.8-1.6,0.8-3v-0.1v-1.5c-0.3,0.7-0.8,1.3-1.4,1.6
			s-1.3,0.5-2.2,0.5c-1.5,0-2.8-0.6-3.7-1.8s-1.4-2.9-1.4-4.9c0-2.1,0.5-3.7,1.4-4.9s2.1-1.8,3.7-1.8c0.8,0,1.6,0.2,2.1,0.5
			s1.1,0.9,1.4,1.6v-1.7h2.2V114.3z M590.1,108.5c0-1.6-0.3-2.8-0.8-3.7s-1.3-1.3-2.3-1.3c-1.1,0-1.9,0.4-2.4,1.3s-0.8,2.1-0.8,3.7
			s0.3,2.8,0.8,3.7s1.4,1.3,2.4,1.3c1,0,1.8-0.4,2.3-1.3S590.1,110.1,590.1,108.5z"/>
		<path d="M606.8,107v8.1h-2.2V107c0-1.2-0.2-2-0.6-2.6s-1.1-0.8-1.9-0.8c-1,0-1.8,0.4-2.3,1.1s-0.8,1.7-0.8,3.1v7.4h-2.2V102h2.2v2
			c0.4-0.8,0.9-1.3,1.6-1.7s1.4-0.6,2.3-0.6c1.3,0,2.3,0.4,3,1.3S606.8,105.2,606.8,107z"/>
		<path d="M622.1,107.5v1.1h-9.3v0.1c-0.1,1.8,0.3,3.1,1,3.9s1.8,1.2,3.2,1.2c0.7,0,1.4-0.1,2.2-0.3s1.6-0.6,2.4-1v2.1
			c-0.8,0.3-1.6,0.6-2.4,0.8s-1.5,0.3-2.2,0.3c-2,0-3.6-0.6-4.8-1.8s-1.7-2.9-1.7-5.1c0-2.1,0.6-3.8,1.7-5s2.6-1.9,4.5-1.9
			c1.7,0,3,0.6,4,1.7S622,105.9,622.1,107.5z M619.9,106.9c-0.1-0.9-0.4-1.7-1-2.3s-1.4-1-2.4-1c-1,0-1.9,0.3-2.6,1s-1,1.5-1.1,2.3
			L619.9,106.9z"/>
		<path d="M636.9,104.7c-0.5-0.4-0.9-0.6-1.4-0.8s-1-0.2-1.6-0.2c-1.3,0-2.4,0.4-3.1,1.3s-1.1,2.1-1.1,3.7v6.5h-2.2V102h2.2v2.6
			c0.4-0.9,0.9-1.6,1.7-2.1s1.6-0.7,2.7-0.7c0.5,0,1,0.1,1.5,0.2s0.9,0.3,1.3,0.6V104.7z"/>
	</g>
	<g class="st0">
		<path d="M226.7,35.8V15.4h6.5v54.7h-6.5v-5c-1.1,1.9-2.5,3.4-4.3,4.4s-3.9,1.5-6.2,1.5c-4.8,0-8.5-1.8-11.2-5.5s-4.1-8.8-4.1-15.3
			c0-6.4,1.4-11.4,4.1-15.1s6.5-5.5,11.2-5.5c2.4,0,4.5,0.5,6.3,1.5S225.7,33.9,226.7,35.8z M207.7,50.5c0,5,0.8,8.8,2.4,11.4
			s3.9,3.8,7.1,3.8s5.5-1.3,7.1-3.9s2.4-6.4,2.4-11.3c0-5-0.8-8.8-2.4-11.3s-4-3.8-7.1-3.8s-5.5,1.3-7.1,3.8S207.7,45.5,207.7,50.5z
			"/>
		<path d="M277.1,47.7v22.5h-6.5v-5.8c-1.4,2.3-3.1,4.1-5.2,5.2s-4.6,1.7-7.6,1.7c-4,0-7.2-1.1-9.6-3.4s-3.6-5.3-3.6-9.1
			c0-4.4,1.5-7.7,4.4-10s7.3-3.4,13-3.4h8.7v-1c0-3.1-0.8-5.4-2.4-6.8s-4.1-2.1-7.5-2.1c-2.2,0-4.4,0.3-6.7,0.9s-4.4,1.6-6.6,2.8
			v-6.5c2.4-0.9,4.7-1.6,6.9-2.1s4.3-0.7,6.4-0.7c3.3,0,6,0.5,8.3,1.4s4.2,2.4,5.6,4.3c0.9,1.2,1.5,2.6,1.9,4.3
			S277.1,44.2,277.1,47.7z M264.6,50.4h-2.1c-3.8,0-6.6,0.7-8.5,2s-2.9,3.3-2.9,5.9c0,2.4,0.7,4.2,2.1,5.5s3.4,2,5.9,2
			c3.6,0,6.4-1.2,8.4-3.7s3.1-5.9,3.1-10.2v-1.4H264.6z"/>
		<path d="M320.2,45.7v24.4h-6.5V45.7c0-3.5-0.6-6.1-1.9-7.8s-3.2-2.5-5.8-2.5c-3,0-5.3,1.1-7,3.2s-2.4,5.2-2.4,9.2v22.3h-6.5V30.8
			h6.5v5.9c1.1-2.2,2.7-4,4.7-5.1s4.3-1.7,7-1.7c4,0,7,1.3,9,4S320.2,40.4,320.2,45.7z"/>
		<path d="M363.6,45.7v24.4h-6.5V45.7c0-3.5-0.6-6.1-1.9-7.8s-3.2-2.5-5.8-2.5c-3,0-5.3,1.1-7,3.2s-2.4,5.2-2.4,9.2v22.3h-6.5V30.8
			h6.5v5.9c1.1-2.2,2.7-4,4.7-5.1s4.3-1.7,7-1.7c4,0,7,1.3,9,4S363.6,40.4,363.6,45.7z"/>
		<path d="M400.1,57.5c-1.1,2.7-2.4,6.4-4.1,10.8c-2.3,6.2-3.9,10-4.7,11.3c-1.1,1.8-2.4,3.2-4,4.1s-3.5,1.4-5.7,1.4h-5.2v-5.4h3.8
			c1.9,0,3.4-0.6,4.5-1.7s2.4-3.9,4.1-8.5l-15.2-38.7h6.9l11.7,30.8l11.5-30.8h6.9L400.1,57.5z"/>
	</g>
	<g class="st0">
		<path class="st1" d="M447.5,32.1v6.3c-1.9-1.1-3.7-1.9-5.6-2.4c-1.9-0.5-3.8-0.8-5.7-0.8c-2.9,0-5.1,0.5-6.6,1.4s-2.2,2.4-2.2,4.3
			c0,1.8,0.5,3.1,1.6,3.9c1.1,0.9,3.8,1.7,8.1,2.5l2.6,0.5c3.2,0.6,5.6,1.8,7.3,3.7s2.5,4.2,2.5,7.1c0,3.9-1.4,6.9-4.1,9.1
			c-2.8,2.2-6.6,3.3-11.5,3.3c-1.9,0-4-0.2-6.1-0.6c-2.1-0.4-4.4-1-6.9-1.8V62c2.4,1.2,4.7,2.2,6.9,2.8c2.2,0.6,4.3,0.9,6.3,0.9
			c2.9,0,5.1-0.6,6.6-1.7c1.6-1.2,2.4-2.8,2.4-4.9c0-3-2.9-5.1-8.6-6.2l-0.3-0.1l-2.4-0.5c-3.7-0.7-6.4-2-8.2-3.7
			c-1.7-1.7-2.6-4.1-2.6-7c0-3.8,1.3-6.7,3.8-8.7c2.6-2.1,6.2-3.1,10.9-3.1c2.1,0,4.1,0.2,6.1,0.6C443.7,30.8,445.6,31.4,447.5,32.1
			z"/>
		<path class="st1" d="M496,47.2v3.2h-28v0.2c-0.2,5.4,0.8,9.2,3.1,11.6c2.2,2.3,5.4,3.5,9.5,3.5c2.1,0,4.2-0.3,6.5-1s4.7-1.7,7.2-3
			v6.4c-2.5,1-4.8,1.8-7.1,2.3s-4.5,0.8-6.6,0.8c-6.1,0-10.9-1.8-14.3-5.5s-5.2-8.7-5.2-15.2c0-6.3,1.7-11.3,5.1-15
			s7.9-5.6,13.5-5.6c5,0,9,1.7,11.9,5.1C494.3,38.3,495.8,42.4,496,47.2z M489.6,45.3c-0.3-2.7-1.3-5.1-3-7c-1.7-2-4.1-3-7.3-3
			c-3.1,0-5.7,1-7.7,3.1c-2,2.1-3.1,4.4-3.3,7L489.6,45.3z"/>
		<path class="st1" d="M536.9,45.7v24.4h-6.5V45.7c0-3.5-0.6-6.1-1.9-7.8c-1.2-1.7-3.2-2.5-5.8-2.5c-3,0-5.3,1.1-7,3.2
			c-1.6,2.1-2.4,5.2-2.4,9.2v22.3h-6.5V30.8h6.5v5.9c1.1-2.2,2.7-4,4.7-5.1s4.3-1.7,7-1.7c4,0,7,1.3,9,4
			C536,36.4,536.9,40.4,536.9,45.7z"/>
		<path class="st1" d="M580,67.6c0,5.9-1.4,10.4-4.2,13.4c-2.8,3-6.9,4.6-12.3,4.6c-1.8,0-3.6-0.2-5.6-0.5c-1.9-0.3-3.9-0.8-5.8-1.4
			v-6.4c2.3,1.1,4.4,1.9,6.3,2.4c1.9,0.5,3.6,0.8,5.2,0.8c3.5,0,6-0.9,7.6-2.8c1.6-1.9,2.4-4.9,2.4-9v-0.3v-4.4
			c-1,2.2-2.4,3.8-4.2,4.9c-1.8,1.1-4,1.6-6.5,1.6c-4.6,0-8.3-1.8-11-5.5s-4.1-8.6-4.1-14.8c0-6.2,1.4-11.1,4.1-14.8s6.4-5.5,11-5.5
			c2.5,0,4.7,0.5,6.4,1.5s3.2,2.6,4.3,4.7v-5.1h6.5V67.6z M573.5,50.1c0-4.9-0.8-8.5-2.4-11.1s-3.9-3.8-6.9-3.8
			c-3.2,0-5.6,1.3-7.2,3.8c-1.7,2.5-2.5,6.2-2.5,11.1s0.8,8.5,2.5,11.1c1.7,2.5,4.1,3.8,7.3,3.8c3,0,5.3-1.3,6.8-3.8
			S573.5,55,573.5,50.1z"/>
	</g>
</g>
</svg>
