<svg id="Layer_1" data-name="Layer 1" xmlns="http://www.w3.org/2000/svg" xmlns:xlink="http://www.w3.org/1999/xlink" viewBox="0 0 615.75 125.48"><defs><style>.cls-1,.cls-2{fill:none;}.cls-1{clip-rule:evenodd;}.cls-3{clip-path:url(#clip-path);}.cls-4{clip-path:url(#clip-path-2);}.cls-5{fill:#aecbd8;}</style><clipPath id="clip-path" transform="translate(7.87 -37.26)"><path class="cls-1" d="M600,126.63q0,14.9-6.73,21.51t-21.84,6.62a67.79,67.79,0,0,1-10.08-.75,72,72,0,0,1-10.13-2.3V136.82a39.44,39.44,0,0,0,9.36,3.76,39,39,0,0,0,9.8,1.22q6.87,0,10.13-3.24t3.27-10.1v-6.7a15.84,15.84,0,0,1-6.31,6.59,19.66,19.66,0,0,1-9.58,2.16A20,20,0,0,1,551,122.2q-6.25-8.3-6.26-22.53,0-14.73,6.26-23.37a19.7,19.7,0,0,1,16.78-8.63,18,18,0,0,1,9.46,2.49,17.43,17.43,0,0,1,6.54,7V69.27H600ZM583.78,99.28c0-5.54-1-10-3.16-13.32s-4.87-5-8.3-5-6.14,1.67-8.22,5S561,93.71,561,99.28s1,10.08,3.13,13.4,4.82,5,8.22,5,6.2-1.67,8.3-5S583.78,104.85,583.78,99.28ZM530.35,91v40.25H514.24V93.52q0-6.75-1.91-9.66C511.05,81.92,509,81,506.1,81a7.78,7.78,0,0,0-6.89,3.94q-2.52,3.93-2.52,10.9v35.49H480.58v-62h16.11v9.3a15,15,0,0,1,5.87-8,17.37,17.37,0,0,1,10-2.82q8.8,0,13.29,5.84T530.35,91Zm-80.28,2.33c-.07-4.29-1.17-7.52-3.3-9.72s-5.25-3.29-9.38-3.29a11.86,11.86,0,0,0-8.91,3.4q-3.33,3.41-3.93,9.66Zm13.73,34.88a61,61,0,0,1-11.52,3.48,63.27,63.27,0,0,1-12.4,1.17q-15.56,0-23.78-8.34t-8.22-24q0-15.17,7.92-24t21.59-8.8q13.78,0,21.4,8.16t7.61,23v6.59h-42q.06,7.3,4.32,10.9t12.73,3.6a38.66,38.66,0,0,0,11-1.6,51,51,0,0,0,11.35-5.1Zm-74.41-57V85.38A37.19,37.19,0,0,0,380.06,81a33.32,33.32,0,0,0-9.72-1.47c-3.61,0-6.35.53-8.19,1.58a5.06,5.06,0,0,0-2.77,4.68q0,4.42,11.85,7.19l.61.17,4.65,1.11q8.85,2.1,13,6.78t4.13,12.65q0,9.58-6.29,14.37t-18.91,4.79a71.11,71.11,0,0,1-11.46-1A84.09,84.09,0,0,1,345,129V114.84A50.71,50.71,0,0,0,356,119.49a38.79,38.79,0,0,0,10.77,1.6c3.81,0,6.68-.55,8.64-1.66a5.24,5.24,0,0,0,2.94-4.81,5.74,5.74,0,0,0-2.08-4.76q-2.08-1.67-9.88-3.55l-4.49-1q-9.3-2.11-13.56-6.59t-4.27-12q0-9,6.48-13.95t18.22-5a63.9,63.9,0,0,1,10.49.86A61,61,0,0,1,389.39,71.21Zm-75.63,40.14q-2.55,6.48-6.48,17.05-5.47,14.63-7.36,17.83a17.32,17.32,0,0,1-6.37,6.48,17.81,17.81,0,0,1-8.91,2.16h-8.2v-8.53h6a9.4,9.4,0,0,0,7-2.6q2.55-2.61,6.48-13.45l-24-61h10.8l18.38,48.5,18.1-48.5h10.8ZM256.18,92.86v38.42H245.94V92.86q0-8.37-2.94-12.29t-9.19-3.93q-7.14,0-11,5.06T219,96.24v35H208.78v-62H219v9.3a19.17,19.17,0,0,1,7.37-8,21.27,21.27,0,0,1,11-2.74q9.48,0,14.15,6.23T256.18,92.86Zm-68.27,0v38.42H177.67V92.86q0-8.37-2.94-12.29t-9.19-3.93q-7.14,0-11,5.06t-3.84,14.54v35H140.52v-62h10.19v9.3a19.09,19.09,0,0,1,7.36-8,21.28,21.28,0,0,1,11-2.74q9.47,0,14.14,6.23T187.91,92.86Zm-67.82,3v35.38H109.85v-9.19a21.08,21.08,0,0,1-8.23,8.17,25.41,25.41,0,0,1-12,2.63q-9.47,0-15.11-5.35t-5.65-14.31q0-10.35,7-15.72t20.4-5.37h13.68V90.53q-.06-7.41-3.77-10.77T94.23,76.41a38.63,38.63,0,0,0-10.52,1.5,46,46,0,0,0-10.35,4.37V72.1a70.81,70.81,0,0,1,10.82-3.24,49.15,49.15,0,0,1,10-1.08,34,34,0,0,1,13.15,2.27,20.58,20.58,0,0,1,8.83,6.81,17,17,0,0,1,3,6.83A62.14,62.14,0,0,1,120.09,95.9Zm-10.24,4.21H97q-8.92,0-13.43,3.13T79,112.57q0,5.59,3.37,8.69c2.26,2.07,5.37,3.1,9.36,3.1q8.42,0,13.23-5.84t4.88-16.14Zm-99.11.22q0,11.85,3.77,17.89a12.29,12.29,0,0,0,11.12,6,12.47,12.47,0,0,0,11.22-6.09q3.84-6.09,3.84-17.83T36.85,82.48a12.48,12.48,0,0,0-11.22-6.07,12.3,12.3,0,0,0-11.12,6Q10.75,88.48,10.74,100.33ZM40.69,77.19V45.13H50.88v86.15H40.69v-7.8a17.66,17.66,0,0,1-6.78,7,19.47,19.47,0,0,1-9.77,2.41q-11.24,0-17.69-8.72T0,100.11Q0,85,6.48,76.39t17.66-8.61A19.62,19.62,0,0,1,34,70.19,16.84,16.84,0,0,1,40.69,77.19Z"/></clipPath><clipPath id="clip-path-2" transform="translate(7.87 -37.26)"><rect class="cls-2" x="-6.81" y="16.32" width="628.37" height="163.78"/></clipPath></defs><title>ds-logo</title><g class="cls-3"><g class="cls-4"><rect class="cls-5" width="615.75" height="125.48"/></g></g></svg>